<svg width="45" height="45" viewBox="0 0 45 45" fill="none" xmlns="http://www.w3.org/2000/svg">
<path d="M39.375 34.6875C39.375 37.2769 37.2769 39.375 34.6875 39.375H10.3125C7.72406 39.375 5.625 37.2769 5.625 34.6875V10.3125C5.625 7.72312 7.72406 5.625 10.3125 5.625H34.6875C37.2769 5.625 39.375 7.72312 39.375 10.3125V34.6875Z" fill="#673AB7"/>
<path d="M30.9656 24C30.3562 23.1562 29.475 22.575 28.3406 22.2656C28.3406 22.2656 29.2969 21.9187 30.1594 20.625C30.675 19.8 30.9375 18.8062 30.9375 17.6437C30.9375 15.6281 30.2062 14.0813 28.7437 13.0219C27.2812 11.9625 25.6313 11.25 22.8281 11.25H14.0625V33.75H23.8406C26.4938 33.7313 28.4906 33.1594 29.85 32.0625C31.2 30.9469 31.875 29.2969 31.875 27.0938C31.875 25.875 31.575 24.8438 30.9656 24ZM19.6875 15C19.6875 15 23.5969 15 23.6719 15C25.0969 15 26.25 16.1531 26.25 17.5781C26.25 19.0031 25.0969 20.1562 23.6719 20.1562C23.5969 20.1562 19.6875 20.1562 19.6875 20.1562V15ZM24.375 30H19.6875V24.375H24.375C25.9312 24.375 27.1875 25.6313 27.1875 27.1875C27.1875 28.7437 25.9312 30 24.375 30Z" fill="white"/>
</svg>
