<svg width="42" height="42" viewBox="0 0 42 42" fill="none" xmlns="http://www.w3.org/2000/svg">
<path d="M35.875 4.375H6.125L8.75 34.125L21 37.625L33.25 34.125L35.875 4.375Z" fill="#0277BD"/>
<path d="M21 7V34.9125L30.8 32.1125L32.9875 7H21Z" fill="#039BE5"/>
<path d="M28.9625 11.375H21V14.875H25.2875L25.025 18.375H21V21.875H24.85L24.5875 25.8125L21 27.0375V30.7125L27.9125 28.4375L28.525 18.375L28.9625 11.375Z" fill="white"/>
<path d="M21.0002 11.375V14.875H13.2127L12.9502 11.375H21.0002ZM16.9752 18.375L17.1502 21.875H21.0002V18.375H16.9752ZM17.3252 23.625H13.8252L14.0877 28.4375L21.0002 30.7125V27.0375L17.4127 25.8125L17.3252 23.625Z" fill="#EEEEEE"/>
</svg>
