<svg width="42" height="42" viewBox="0 0 42 42" fill="none" xmlns="http://www.w3.org/2000/svg">
<path d="M22.75 14.875H15.75C12.3672 14.875 9.625 12.1327 9.625 8.75C9.625 5.36725 12.3672 2.625 15.75 2.625H22.75V14.875Z" fill="#E64A19"/>
<path d="M21.875 27.125H15.75C12.3672 27.125 9.625 24.3827 9.625 21C9.625 17.6172 12.3672 14.875 15.75 14.875H21.875V27.125Z" fill="#7C4DFF"/>
<path d="M15.75 39.375C12.3672 39.375 9.625 36.6327 9.625 33.25C9.625 29.8672 12.3672 27.125 15.75 27.125H21.875V33.25C21.875 36.6327 19.1327 39.375 15.75 39.375Z" fill="#66BB6A"/>
<path d="M28 14.875H21.875V2.625H28C31.3827 2.625 34.125 5.36725 34.125 8.75C34.125 12.1327 31.3827 14.875 28 14.875Z" fill="#FF7043"/>
<path d="M28 27.125C31.3827 27.125 34.125 24.3827 34.125 21C34.125 17.6173 31.3827 14.875 28 14.875C24.6173 14.875 21.875 17.6173 21.875 21C21.875 24.3827 24.6173 27.125 28 27.125Z" fill="#29B6F6"/>
</svg>
