<svg width="42" height="42" viewBox="0 0 42 42" fill="none" xmlns="http://www.w3.org/2000/svg">
<path d="M35.875 4.375H6.125L8.75 34.125L21 37.625L33.25 34.125L35.875 4.375Z" fill="#E65100"/>
<path d="M21 7V34.9125L30.8 32.1125L32.9875 7H21Z" fill="#FF6D00"/>
<path d="M21 21.875V18.375H28.525L27.9125 28.4375L21 30.7125V27.0375L24.5875 25.8125L24.85 21.875H21ZM28.7875 14.875L29.05 11.375H21V14.875H28.7875Z" fill="white"/>
<path d="M20.9996 27.0375V30.7125L14.0871 28.4375L13.7371 23.625H17.2371L17.4121 25.8125L20.9996 27.0375ZM16.7121 14.875H20.9996V11.375H13.0371L13.6496 21.875H20.9996V18.375H16.9746L16.7121 14.875Z" fill="#EEEEEE"/>
</svg>
