<svg width="42" height="42" viewBox="0 0 42 42" fill="none" xmlns="http://www.w3.org/2000/svg">
<path d="M5.25 36.75V5.25H36.75V36.75H5.25Z" fill="#F7DF1E"/>
<path d="M25.8459 28.8286C26.4514 29.8121 27.1094 30.7545 28.5033 30.7545C29.674 30.7545 30.2883 30.1726 30.2883 29.3676C30.2883 28.4043 29.653 28.0621 28.365 27.5013L27.6589 27.2003C25.621 26.3358 24.2656 25.2525 24.2656 22.9644C24.2656 20.8556 25.88 19.2509 28.4026 19.2509C30.199 19.2509 31.4896 19.873 32.4206 21.5022L30.2209 22.9084C29.737 22.0439 29.2138 21.7035 28.4026 21.7035C27.5749 21.7035 27.0508 22.2259 27.0508 22.9084C27.0508 23.7519 27.5758 24.0931 28.7876 24.6155L29.4938 24.9165C31.8956 25.9394 33.2501 26.9841 33.2501 29.3326C33.2501 31.8631 31.2516 33.25 28.5689 33.25C25.9448 33.25 24.4546 31.9331 23.6251 30.303L25.8459 28.8286ZM15.7081 28.9004C16.1509 29.6931 16.8238 30.303 17.7915 30.303C18.7173 30.303 19.2501 29.9373 19.2501 28.5154V19.25H22.1665V28.9634C22.1665 31.9095 20.4576 33.25 17.9621 33.25C15.7073 33.25 14.0798 31.7222 13.4165 30.303L15.7081 28.9004Z" fill="#000001"/>
</svg>
