<svg width="42" height="42" viewBox="0 0 42 42" fill="none" xmlns="http://www.w3.org/2000/svg">
<path d="M36.75 15.1375C36.75 33.075 21 38.5 21 38.5C21 38.5 5.25 33.075 5.25 15.1375C5.25 12.95 5.425 11.1125 5.6 9.625C5.8625 7.4375 7.35 5.6875 9.45 5.1625C12.1625 4.375 16.45 3.5 21 3.5C25.55 3.5 29.8375 4.375 32.6375 5.1625C34.7375 5.6875 36.225 7.525 36.4875 9.625C36.575 11.1125 36.75 13.0375 36.75 15.1375Z" fill="#5D4037"/>
<path d="M21 6.125C25.2875 6.125 29.3125 7 31.9375 7.7C32.9875 7.9625 33.6875 8.8375 33.8625 9.975C34.0375 11.6375 34.125 13.3875 34.125 15.1375C34.125 28.7875 24.0625 34.3 21 35.6125C17.9375 34.2125 7.875 28.7 7.875 15.1375C7.875 13.3875 7.9625 11.6375 8.1375 9.975C8.225 8.8375 9.0125 7.9625 10.0625 7.7C12.6875 7 16.7125 6.125 21 6.125ZM21 3.5C16.45 3.5 12.1625 4.375 9.3625 5.1625C7.35 5.6875 5.775 7.525 5.6 9.625C5.425 11.1125 5.25 13.0375 5.25 15.1375C5.25 33.075 21 38.5 21 38.5C21 38.5 36.75 33.075 36.75 15.1375C36.75 12.95 36.575 11.1125 36.4 9.625C36.1375 7.4375 34.65 5.6875 32.55 5.1625C29.8375 4.375 25.55 3.5 21 3.5Z" fill="#4CAF50"/>
<path d="M20.125 24.5H21.875V31.5H20.125V24.5Z" fill="#DCEDC8"/>
<path d="M21 8.75C21 8.75 15.75 13.125 15.75 20.125C15.75 24.675 18.6375 27.5625 20.125 28.875L21 26.25L21.875 28.875C23.3625 27.5625 26.25 24.675 26.25 20.125C26.25 13.125 21 8.75 21 8.75Z" fill="#4CAF50"/>
<path d="M21 8.75C21 8.75 15.75 13.125 15.75 20.125C15.75 24.675 18.6375 27.5625 20.125 28.875L21 26.25V8.75Z" fill="#81C784"/>
</svg>
