<svg width="42" height="42" viewBox="0 0 42 42" fill="none" xmlns="http://www.w3.org/2000/svg">
<path d="M21 2.68652C20.3093 2.68652 19.6199 2.86773 19.0056 3.22998L7.19312 10.1821C5.99349 10.8856 5.25 12.1875 5.25 13.5762V28.8904C5.25 30.3315 6.03553 31.6556 7.30078 32.3459L11.1716 34.4583C11.7675 34.7838 12.4126 34.9402 13.0583 34.9402C13.7513 34.9402 14.4356 34.754 15.063 34.3865C16.2705 33.6698 16.9907 32.4046 16.9907 30.9976V14.3452H14.3657V30.9976C14.3657 31.6722 13.9191 32.0126 13.7249 32.1255C13.5332 32.2384 13.0184 32.474 12.4277 32.1511L8.56201 30.0439C8.13939 29.8129 7.875 29.3708 7.875 28.8904V13.5762C7.875 13.1142 8.122 12.6794 8.521 12.4431L20.3335 5.49097C20.743 5.24947 21.257 5.25209 21.6665 5.49097L33.479 12.4431C33.8754 12.6794 34.125 13.1142 34.125 13.5762V28.9006C34.125 29.3731 33.8631 29.8179 33.4431 30.0542L21.6306 36.4885C21.2369 36.6985 20.7631 36.6985 20.3694 36.4885L18.0623 35.2273C17.616 35.7785 17.0625 36.2537 16.4062 36.6475C16.1962 36.7787 15.9856 36.8815 15.7756 36.9602L19.1082 38.7957C19.7119 39.1107 20.3438 39.2725 21 39.2725C21.6562 39.2725 22.2881 39.1107 22.8918 38.7957L34.7043 32.3408C35.9643 31.6583 36.75 30.3444 36.75 28.9006V13.5762C36.75 12.1875 36.009 10.8856 34.812 10.1821L22.9995 3.22998C22.3839 2.86773 21.6907 2.68652 21 2.68652ZM24.8093 13.9607C20.6618 13.9607 18.5596 15.4063 18.5596 18.2571C18.5596 21.4858 22.2783 21.9662 24.0659 22.1946C24.3232 22.2287 24.5513 22.2579 24.7324 22.292L25.5168 22.4304C28.2468 22.8872 28.875 23.1968 28.875 24.0762C28.875 24.5014 28.8728 25.7886 24.8093 25.7886C21.3627 25.7886 20.6565 24.7659 20.6565 23.2302H18.0315C18.0315 25.598 19.2076 28.4136 24.8093 28.4136C30.3376 28.4136 31.5 26.0554 31.5 24.0762C31.5 20.7739 28.2915 20.2326 25.9526 19.8362L25.199 19.708C24.9811 19.6686 24.7063 19.632 24.3992 19.5952C22.7297 19.38 21.1846 19.0707 21.1846 18.2622C21.1846 17.6768 21.1816 16.5883 24.8093 16.5857C27.2217 16.5857 28.4495 17.3796 28.4495 18.9441H31.0745C31.0745 16.537 29.4241 13.9607 24.8093 13.9607Z" fill="#4FE752"/>
</svg>
