<svg width="42" height="42" viewBox="0 0 42 42" fill="none" xmlns="http://www.w3.org/2000/svg">
<path d="M21 29.75C9.7125 29.75 0.875 25.9 0.875 21C0.875 16.1 9.7125 12.25 21 12.25C32.2875 12.25 41.125 16.1 41.125 21C41.125 25.9 32.2875 29.75 21 29.75ZM21 14C9.975 14 2.625 17.5875 2.625 21C2.625 24.4125 9.975 28 21 28C32.025 28 39.375 24.4125 39.375 21C39.375 17.5875 32.025 14 21 14Z" fill="#80DEEA"/>
<path d="M13.2121 39.0252C12.3371 39.0252 11.6371 38.8502 10.9371 38.4127C6.64964 35.9627 7.78714 26.4252 13.3871 16.6252C16.0121 12.0752 19.2496 8.22521 22.3996 5.77521C25.8121 3.15021 28.8746 2.36271 30.9746 3.58771C33.1621 4.81271 33.9496 7.87521 33.4246 12.1627C32.8996 16.1877 31.1496 20.9127 28.5246 25.4627C25.8996 30.0127 22.6621 33.8627 19.5121 36.3127C17.2371 38.0627 15.0496 39.0252 13.2121 39.0252ZM28.7871 4.72521C27.3871 4.72521 25.5496 5.51271 23.5371 7.08771C20.5621 9.45021 17.4996 13.1252 14.9621 17.5002C9.44964 27.0377 8.92464 35.2627 11.8121 36.9252C13.2996 37.8002 15.7496 37.0127 18.4621 34.9127C21.4371 32.5502 24.4996 28.8752 27.0371 24.5002C29.5746 20.1252 31.2371 15.6627 31.7621 11.9002C32.1996 8.40021 31.6746 5.95021 30.1871 5.07521C29.7496 4.90021 29.3121 4.72521 28.7871 4.72521Z" fill="#80DEEA"/>
<path d="M28.8755 39.0248C24.5005 39.0248 18.2005 33.6873 13.4755 25.3748C7.78798 15.5748 6.65048 6.03732 10.938 3.58732C15.2255 1.13732 22.9255 6.82482 28.613 16.6248C31.238 21.1748 32.988 25.8998 33.513 29.9248C34.1255 34.2123 33.2505 37.1873 31.063 38.4998C30.363 38.8498 29.663 39.0248 28.8755 39.0248ZM11.813 5.07482C8.92548 6.73732 9.45048 14.9623 14.963 24.4998C20.4755 34.0373 27.3005 38.5873 30.188 36.9248C31.6755 36.0498 32.2005 33.5998 31.763 30.0998C31.238 26.3373 29.5755 21.8748 27.038 17.4998C21.5255 7.96232 14.7005 3.41232 11.813 5.07482Z" fill="#80DEEA"/>
<path d="M21 24.5C22.933 24.5 24.5 22.933 24.5 21C24.5 19.067 22.933 17.5 21 17.5C19.067 17.5 17.5 19.067 17.5 21C17.5 22.933 19.067 24.5 21 24.5Z" fill="#80DEEA"/>
</svg>
